<?xml version="1.0" standalone="no"?>
<!DOCTYPE svg PUBLIC "-//W3C//DTD SVG 20010904//EN"
 "http://www.w3.org/TR/2001/REC-SVG-20010904/DTD/svg10.dtd">
<svg version="1.0" xmlns="http://www.w3.org/2000/svg"
 width="512.000000pt" height="512.000000pt" viewBox="0 0 512.000000 512.000000"
 preserveAspectRatio="xMidYMid meet">
<metadata>
Created by potrace 1.11, written by Peter Selinger 2001-2013
</metadata>
<g transform="translate(0.000000,512.000000) scale(0.100000,-0.100000)"
fill="#000000" stroke="none">
<path d="M2515 4688 c-55 -44 -178 -141 -274 -216 -95 -75 -228 -180 -295
-233 -66 -53 -211 -167 -321 -253 -110 -87 -216 -170 -235 -186 -19 -16 -154
-122 -300 -237 -146 -114 -272 -213 -280 -220 -8 -7 -71 -56 -140 -110 -69
-54 -130 -102 -136 -108 -6 -5 -52 -41 -102 -80 -50 -38 -92 -73 -92 -76 0 -3
13 -21 29 -40 16 -19 71 -84 122 -144 52 -61 108 -127 124 -148 l30 -37 124
96 c67 52 124 94 126 92 3 -4 30 -139 50 -253 8 -49 17 -101 20 -115 8 -41 64
-361 101 -580 32 -190 48 -293 60 -380 2 -19 6 -42 9 -50 2 -8 7 -42 11 -75 3
-33 7 -62 9 -65 2 -3 6 -37 10 -75 3 -39 8 -77 10 -85 5 -20 18 -156 19 -202
l0 -38 76 0 c87 -1 2667 -1 2721 0 35 0 36 1 36 38 -1 33 7 123 18 207 3 17 9
68 15 115 16 118 20 151 25 180 5 28 6 30 35 215 30 190 30 188 35 215 3 14 7
39 9 55 10 59 77 442 96 545 10 58 28 154 39 214 11 59 22 111 25 113 3 3 42
-24 88 -61 l83 -66 29 32 c16 18 48 54 70 79 23 25 74 83 115 128 85 94 115
131 110 135 -2 2 -71 56 -154 122 -82 65 -156 124 -165 131 -8 7 -73 59 -145
116 -71 58 -470 375 -885 707 -415 331 -764 609 -775 619 -11 9 -33 26 -50 37
l-30 21 -100 -79z m239 -1437 c409 -144 511 -651 192 -943 -98 -89 -258 -144
-396 -135 -183 13 -339 104 -437 255 -210 324 -19 766 362 842 70 14 215 4
279 -19z"/>
<path d="M2090 640 c-4 -3 -8 -69 -8 -147 l0 -143 499 0 498 0 -2 147 -2 147
-488 0 c-269 1 -493 -1 -497 -4z"/>
</g>
</svg>
